<svg xmlns="http://www.w3.org/2000/svg" width="228" height="40" viewBox="0 0 228 40">
  <defs>
    <linearGradient id="bg" x1="0" y1="0" x2="0" y2="1">
      <stop offset="0%" stop-color="#ffffff" stop-opacity="0.12"/>
      <stop offset="50%" stop-color="#ffffff" stop-opacity="0"/>
      <stop offset="100%" stop-color="#000000" stop-opacity="0.2"/>
    </linearGradient>
    <linearGradient id="shine" x1="0" y1="0" x2="0" y2="1">
      <stop offset="0%" stop-color="#ffffff" stop-opacity="0.25"/>
      <stop offset="45%" stop-color="#ffffff" stop-opacity="0.05"/>
      <stop offset="50%" stop-color="#ffffff" stop-opacity="0"/>
    </linearGradient>
  </defs>
  <rect x="0" y="4" width="228" height="36" rx="6" fill="#000000" fill-opacity="0.3"/>
  <rect width="228" height="36" rx="6" fill="#2d2d2d"/>
  <rect width="228" height="36" rx="6" fill="url(#bg)"/>
  <rect width="228" height="17" rx="6" fill="url(#shine)"/>
  <g transform="translate(10, 8)">
    <svg viewBox="0 0 24 24" width="20" height="20">
      <path d="M8 15H2V13H8C8.55 13 9 13.45 9 14C9 14.55 8.55 15 8 15M16.72 18.9L10.69 4.08L8.83 4.84L9.21 5.76L4.41 9.88L5.27 12H8C9.1 12 10 12.9 10 14S9.1 16 8 16H6.9L8.18 19.14L14.5 18.73L14.87 19.65L16.72 18.9M20.81 17.71L18.5 16.75L19.26 14.9L21.57 15.86L20.81 17.71M18.78 10.43L18 8.58L20.79 7.43L21.55 9.28L18.78 10.43M15.19 5.07L13.34 4.31L14.3 2L16.15 2.77L15.19 5.07Z" fill="#ffffff"/>
    </svg>
  </g>
  <text x="38" y="23" font-family="system-ui, -apple-system, sans-serif" font-size="13" font-weight="500" fill="#ffffff">ArtNet @ Course (8bit)</text>
</svg>
