<svg xmlns="http://www.w3.org/2000/svg" width="160" height="40" viewBox="0 0 160 40">
  <defs>
    <linearGradient id="bg" x1="0" y1="0" x2="0" y2="1">
      <stop offset="0%" stop-color="#ffffff" stop-opacity="0.12"/>
      <stop offset="50%" stop-color="#ffffff" stop-opacity="0"/>
      <stop offset="100%" stop-color="#000000" stop-opacity="0.2"/>
    </linearGradient>
    <linearGradient id="shine" x1="0" y1="0" x2="0" y2="1">
      <stop offset="0%" stop-color="#ffffff" stop-opacity="0.25"/>
      <stop offset="45%" stop-color="#ffffff" stop-opacity="0.05"/>
      <stop offset="50%" stop-color="#ffffff" stop-opacity="0"/>
    </linearGradient>
  </defs>
  <rect x="0" y="4" width="160" height="36" rx="6" fill="#000000" fill-opacity="0.3"/>
  <rect width="160" height="36" rx="6" fill="#3a3a3a"/>
  <rect width="160" height="36" rx="6" fill="url(#bg)"/>
  <rect width="160" height="17" rx="6" fill="url(#shine)"/>
  <g transform="translate(12, 8)">
    <svg viewBox="0 0 24 24" width="20" height="20">
      <path d="M2,5H10V2H12V22H10V18H6V15H10V13H4V10H10V8H2V5M14,5H17V8H14V5M14,10H19V13H14V10M14,15H22V18H14V15Z" fill="#ffffff"/>
    </svg>
  </g>
  <text x="40" y="23" font-family="system-ui, -apple-system, sans-serif" font-size="13" font-weight="500" fill="#ffffff">Composition</text>
</svg>
