<svg xmlns="http://www.w3.org/2000/svg" width="36" height="40" viewBox="0 0 36 40">
  <defs>
    <linearGradient id="bg" x1="0" y1="0" x2="0" y2="1">
      <stop offset="0%" stop-color="#ffffff" stop-opacity="0.12"/>
      <stop offset="50%" stop-color="#ffffff" stop-opacity="0"/>
      <stop offset="100%" stop-color="#000000" stop-opacity="0.2"/>
    </linearGradient>
    <linearGradient id="shine" x1="0" y1="0" x2="0" y2="1">
      <stop offset="0%" stop-color="#ffffff" stop-opacity="0.25"/>
      <stop offset="45%" stop-color="#ffffff" stop-opacity="0.05"/>
      <stop offset="50%" stop-color="#ffffff" stop-opacity="0"/>
    </linearGradient>
  </defs>
  <rect x="0" y="4" width="36" height="36" rx="6" fill="#000000" fill-opacity="0.3"/>
  <rect width="36" height="36" rx="6" fill="#823b73"/>
  <rect width="36" height="36" rx="6" fill="url(#bg)"/>
  <rect width="36" height="17" rx="6" fill="url(#shine)"/>
  <g transform="translate(8, 8)">
    <svg viewBox="0 0 24 24" width="20" height="20">
      <path d="M23,12L19,8V11H10V13H19V16M1,18V6C1,4.89 1.9,4 3,4H15A2,2 0 0,1 17,6V9H15V6H3V18H15V15H17V18A2,2 0 0,1 15,20H3A2,2 0 0,1 1,18Z" fill="#ffffff"/>
    </svg>
  </g>
</svg>
