<svg xmlns="http://www.w3.org/2000/svg" width="120" height="40" viewBox="0 0 120 40">
  <defs>
    <linearGradient id="bg" x1="0" y1="0" x2="0" y2="1">
      <stop offset="0%" stop-color="#ffffff" stop-opacity="0.12"/>
      <stop offset="50%" stop-color="#ffffff" stop-opacity="0"/>
      <stop offset="100%" stop-color="#000000" stop-opacity="0.2"/>
    </linearGradient>
    <linearGradient id="shine" x1="0" y1="0" x2="0" y2="1">
      <stop offset="0%" stop-color="#ffffff" stop-opacity="0.25"/>
      <stop offset="45%" stop-color="#ffffff" stop-opacity="0.05"/>
      <stop offset="50%" stop-color="#ffffff" stop-opacity="0"/>
    </linearGradient>
  </defs>
  <rect x="0" y="4" width="120" height="36" rx="6" fill="#000000" fill-opacity="0.3"/>
  <rect width="120" height="36" rx="6" fill="#3a3a3a"/>
  <rect width="120" height="36" rx="6" fill="url(#bg)"/>
  <rect width="120" height="17" rx="6" fill="url(#shine)"/>
  <g transform="translate(12, 8)">
    <svg viewBox="0 0 24 24" width="20" height="20">
      <path d="M8.5,13.5L11,16.5L14.5,12L19,18H5M21,19V5C21,3.89 20.1,3 19,3H5A2,2 0 0,0 3,5V19A2,2 0 0,0 5,21H19A2,2 0 0,0 21,19Z" fill="#ffffff"/>
    </svg>
  </g>
  <text x="40" y="23" font-family="system-ui, -apple-system, sans-serif" font-size="13" font-weight="500" fill="#ffffff">Image</text>
</svg>
