<svg xmlns="http://www.w3.org/2000/svg" width="120" height="40" viewBox="0 0 120 40">
  <defs>
    <linearGradient id="bg" x1="0" y1="0" x2="0" y2="1">
      <stop offset="0%" stop-color="#ffffff" stop-opacity="0.12"/>
      <stop offset="50%" stop-color="#ffffff" stop-opacity="0"/>
      <stop offset="100%" stop-color="#000000" stop-opacity="0.2"/>
    </linearGradient>
    <linearGradient id="shine" x1="0" y1="0" x2="0" y2="1">
      <stop offset="0%" stop-color="#ffffff" stop-opacity="0.25"/>
      <stop offset="45%" stop-color="#ffffff" stop-opacity="0.05"/>
      <stop offset="50%" stop-color="#ffffff" stop-opacity="0"/>
    </linearGradient>
  </defs>
  <rect x="0" y="4" width="120" height="36" rx="6" fill="#000000" fill-opacity="0.3"/>
  <rect width="120" height="36" rx="6" fill="#2d2d2d"/>
  <rect width="120" height="36" rx="6" fill="url(#bg)"/>
  <rect width="120" height="17" rx="6" fill="url(#shine)"/>
  <g transform="translate(10, 8)">
    <svg viewBox="0 0 24 24" width="20" height="20">
      <path d="M18,4L20,8H17L15,4H13L15,8H12L10,4H8L10,8H7L5,4H4A2,2 0 0,0 2,6V18A2,2 0 0,0 4,20H20A2,2 0 0,0 22,18V4H18Z" fill="#ffffff"/>
    </svg>
  </g>
  <text x="38" y="23" font-family="system-ui, -apple-system, sans-serif" font-size="13" font-weight="500" fill="#ffffff">Video</text>
</svg>
